HIERARCHY
ROOT Hips
{
	OFFSET -3.958830 18.904000 13.208200
	CHANNELS 6 Xposition Yposition Zposition Zrotation Yrotation Xrotation 
	JOINT LHipJoint
	{
		OFFSET 0.000000 0.000000 0.000000
		CHANNELS 3 Zrotation Yrotation Xrotation
		JOINT LeftUpLeg
		{
			OFFSET 1.800000 -1.400000 0.085000
			CHANNELS 3 Zrotation Yrotation Xrotation
			JOINT LeftLeg
			{
				OFFSET 2.215000 -6.000000 0.000000
				CHANNELS 3 Zrotation Yrotation Xrotation
				JOINT LeftFoot
				{
					OFFSET 2.500000 -6.900000 0.000000
					CHANNELS 3 Zrotation Yrotation Xrotation
					JOINT LeftToeBase
					{
						OFFSET 0.200000 -0.500000 1.950000
						CHANNELS 3 Zrotation Yrotation Xrotation
						End Site
						{
							OFFSET 0.000000 0.000000 0.000000
						}
					}
				}
			}
		}
	}
	JOINT RHipJoint
	{
		OFFSET 0.000000 0.000000 0.000000
		CHANNELS 3 Zrotation Yrotation Xrotation
		JOINT RightUpLeg
		{
			OFFSET -1.800000 -1.400000 0.085000
			CHANNELS 3 Zrotation Yrotation Xrotation
			JOINT RightLeg
			{
				OFFSET -2.215000 -6.000000 0.000000
				CHANNELS 3 Zrotation Yrotation Xrotation
				JOINT RightFoot
				{
					OFFSET -2.500000 -6.900000 0.000000
					CHANNELS 3 Zrotation Yrotation Xrotation
					JOINT RightToeBase
					{
						OFFSET -0.200000 -0.500000 1.950000
						CHANNELS 3 Zrotation Yrotation Xrotation
						End Site
						{
							OFFSET 0.000000 0.000000 0.000000
						}
					}
				}
			}
		}
	}
	JOINT LowerBack
	{
		OFFSET 0.000000 0.000000 0.000000
		CHANNELS 3 Zrotation Yrotation Xrotation
		JOINT Spine
		{
			OFFSET -0.087000 1.940000 -0.288900
			CHANNELS 3 Zrotation Yrotation Xrotation
			JOINT Spine1
			{
				OFFSET 0.000000 1.950000 0.060000
				CHANNELS 3 Zrotation Yrotation Xrotation
				JOINT Neck
				{
					OFFSET 0.000000 0.000000 0.000000
					CHANNELS 3 Zrotation Yrotation Xrotation
					JOINT Neck1
					{
						OFFSET 0.000000 1.600000 0.340000
						CHANNELS 3 Zrotation Yrotation Xrotation
						JOINT Head
						{
							OFFSET 0.000000 1.667000 -0.240000
							CHANNELS 3 Zrotation Yrotation Xrotation
							End Site
							{
								OFFSET 0.000000 0.000000 0.000000
							}
						}
					}
				}
				JOINT LeftShoulder
				{
					OFFSET 0.000000 0.000000 0.000000
					CHANNELS 3 Zrotation Yrotation Xrotation
					JOINT LeftArm
					{
						OFFSET 2.700000 1.550000 -0.730000
						CHANNELS 3 Zrotation Yrotation Xrotation
						JOINT LeftForeArm
						{
							OFFSET 5.450000 0.000000 0.000000
							CHANNELS 3 Zrotation Yrotation Xrotation
							JOINT LeftHand
							{
								OFFSET 3.450000 0.000000 0.000000
								CHANNELS 3 Zrotation Yrotation Xrotation
								JOINT LeftHandIndex1
								{
									OFFSET 0.750000 0.000000 0.000000
									CHANNELS 3 Zrotation Yrotation Xrotation
									End Site
									{
										OFFSET 0.000000 0.000000 0.000000
									}
								}
							}
						}
					}
				}
				JOINT RightShoulder
				{
					OFFSET 0.000000 0.000000 0.000000
					CHANNELS 3 Zrotation Yrotation Xrotation
					JOINT RightArm
					{
						OFFSET -2.700000 1.550000 -0.730000
						CHANNELS 3 Zrotation Yrotation Xrotation
						JOINT RightForeArm
						{
							OFFSET -5.450000 0.000000 0.000000
							CHANNELS 3 Zrotation Yrotation Xrotation
							JOINT RightHand
							{
								OFFSET -3.450000 0.000000 0.000000
								CHANNELS 3 Zrotation Yrotation Xrotation
								JOINT RightHandIndex1
								{
									OFFSET -0.750000 0.000000 0.000000
									CHANNELS 3 Zrotation Yrotation Xrotation
									End Site
									{
										OFFSET 0.000000 0.000000 0.000000
									}
								}
							}
						}
					}
				}
			}
		}
	}
}
MOTION
Frames: 13
Frame Time: 0.016667
0.792110 16.834010 -9.478560 -2.901611 -24.161626 8.992867 -14.961662 12.719114 4.067810 9.790877 -3.099862 -33.304299 -5.134950 3.856759 7.129453 -0.414364 2.478635 3.603590 0.238770 0.089790 0.130560 18.341657 -10.902652 2.584844 -10.644236 1.097274 -8.364230 9.466950 -5.644386 10.972697 -0.343021 -3.585992 3.261239 -0.059900 0.007540 0.048170 -3.786473 -1.470960 -7.884921 10.611507 1.904816 12.534091 -2.818698 3.557348 -4.455970 1.670652 -8.060583 -8.333625 -16.981956 11.497508 36.109901 -0.153790 8.297920 -12.206800 -22.529746 2.258127 1.197031 -61.662988 8.195638 -10.976216 -16.283665 -12.036520 -1.065847 -3.610357 2.776248 0.522440 -0.120080 0.110650 0.108830 18.867333 6.115890 3.629442 63.504335 1.299513 -9.060444 12.916007 13.504941 0.053565 2.474137 -1.115114 -0.081840 0.136990 -0.010500 -0.154360 
0.795190 16.844370 -9.474040 -2.639243 -23.911415 8.727656 -14.962473 12.735404 4.031259 9.393336 -3.172306 -32.723557 -5.060959 3.724444 6.575043 -0.425387 2.426830 3.632513 0.247210 0.088840 0.143050 18.336805 -10.904989 2.592039 -10.907801 1.040592 -8.058035 9.467706 -5.622234 10.628723 -0.350758 -3.605357 3.257217 -0.056910 0.000810 0.044450 -3.775463 -1.488379 -7.869007 10.530466 1.874045 12.189654 -2.762594 3.474792 -4.419348 1.724130 -8.034333 -8.385654 -16.877743 11.269971 35.836225 -0.054540 8.133870 -12.443500 -22.706277 1.896634 1.239029 -62.019558 7.986229 -10.692615 -15.080361 -11.140459 -1.157220 -3.609238 2.766138 0.531330 -0.126310 0.110300 0.110300 18.977596 6.437877 3.769582 63.291756 1.246219 -8.891204 12.719877 13.035077 0.041873 2.475680 -1.116402 -0.087510 0.136610 -0.017850 -0.162260 
0.794670 16.854280 -9.468250 -2.558414 -23.599231 8.504775 -14.953705 12.760700 3.988382 9.054781 -3.176493 -32.154785 -4.720492 3.558492 5.948264 -0.427883 2.356596 3.666334 0.242640 0.088500 0.132040 18.341148 -10.910664 2.605935 -10.966924 0.968351 -7.701121 9.593805 -5.651125 10.462462 -0.355887 -3.643373 3.248850 -0.055230 0.004730 0.035890 -3.792866 -1.509573 -7.855106 10.772944 1.821851 11.881389 -2.709856 3.414621 -4.446843 1.693337 -8.106009 -8.491301 -17.070477 11.115906 35.709279 0.346480 7.778610 -12.210260 -23.150538 1.486977 1.302910 -61.966932 7.901562 -10.390272 -14.208956 -10.478015 -1.185537 -3.608838 2.763179 0.525150 -0.127480 0.103800 0.112420 19.499541 6.849870 4.007552 62.745135 0.832229 -8.931786 12.540830 13.114681 0.028139 2.473959 -1.116192 -0.089820 0.139260 -0.017600 -0.157130 
0.794370 16.858450 -9.461750 -2.478589 -23.239964 8.210978 -14.942197 12.771533 3.945903 8.793862 -3.168647 -31.618976 -4.466811 3.435395 5.458223 -0.439586 2.315754 3.690047 0.240970 0.082290 0.137120 18.350968 -10.925621 2.614601 -11.033732 0.877248 -7.241368 9.643072 -5.685450 10.315773 -0.364933 -3.688974 3.233744 -0.053290 0.003970 0.029010 -3.824841 -1.495977 -7.833484 11.069670 1.731600 11.548692 -2.759657 3.304183 -4.201777 1.716362 -8.090821 -8.557014 -17.066340 10.865593 35.786516 0.240300 7.563110 -12.061500 -23.322806 1.146905 1.409531 -61.884076 7.852150 -10.267954 -13.717978 -10.326503 -1.196579 -3.607667 2.756644 0.526650 -0.128630 0.098930 0.109490 19.610452 7.126272 4.128307 62.427357 0.846687 -8.775943 12.746232 12.962064 0.048319 2.474083 -1.117718 -0.097990 0.143420 -0.017350 -0.161950 
0.793770 16.863820 -9.461790 -2.302608 -23.050727 7.863848 -14.937009 12.794653 3.918806 8.457625 -3.171882 -31.123973 -4.276228 3.329476 5.059051 -0.447238 2.271390 3.709954 0.248890 0.093040 0.142240 18.349516 -10.957606 2.610580 -11.093293 0.811704 -6.985478 9.431371 -5.693149 10.415032 -0.372250 -3.709109 3.228378 -0.046540 -0.002380 0.030460 -3.822575 -1.477845 -7.823375 11.054964 1.754184 11.483204 -2.713645 3.313795 -4.042357 1.748986 -7.989679 -8.578290 -16.859109 10.569757 35.931798 0.006750 7.428760 -12.281630 -23.615766 0.833199 1.481497 -61.475767 7.841928 -10.164823 -13.652998 -10.295043 -1.189773 -3.601624 2.759996 0.527790 -0.129440 0.103720 0.111710 19.841721 7.397034 4.180945 61.865114 1.009820 -8.469626 13.236959 12.588651 0.090968 2.472629 -1.124155 -0.095650 0.142520 -0.022580 -0.163040 
0.795860 16.857400 -9.461670 -2.267977 -22.827922 7.772646 -14.919186 12.762586 3.903623 8.356601 -3.187751 -30.958200 -4.332925 3.304024 4.883534 -0.461176 2.282100 3.717456 0.246900 0.086480 0.142920 18.372670 -10.992801 2.591014 -11.065204 0.791615 -6.983962 9.257417 -5.721999 10.712722 -0.365341 -3.733981 3.221415 -0.039620 0.013110 0.029830 -3.889871 -1.374154 -7.777201 11.428415 1.694496 11.152552 -3.004265 3.232920 -3.657548 1.742529 -7.903524 -8.442305 -16.456694 10.283027 35.346738 -0.200700 7.308240 -12.094660 -23.598482 0.739121 1.504789 -61.174574 7.775198 -10.136458 -13.846572 -10.398677 -1.186401 -3.614809 2.759751 0.520020 -0.114950 0.089410 0.114000 19.754540 7.357512 4.074898 61.689467 1.380957 -8.169498 13.835753 12.265934 0.115781 2.467295 -1.136723 -0.107020 0.150760 -0.019720 -0.165530 
0.798150 16.852480 -9.460920 -2.288478 -22.609345 7.694645 -14.901736 12.731555 3.894314 8.400109 -3.179406 -30.780499 -4.550671 3.314015 4.706617 -0.477687 2.318273 3.713989 0.241540 0.075020 0.144350 18.396050 -11.019553 2.567815 -11.016481 0.778171 -6.998018 9.133136 -5.769173 11.098892 -0.356063 -3.758296 3.212183 -0.032660 0.028430 0.021980 -3.958396 -1.290916 -7.731746 11.862969 1.595909 10.849039 -3.264810 3.126092 -3.258468 1.696954 -7.907588 -8.332519 -16.309447 10.112825 34.847016 -0.249280 7.138400 -11.895810 -23.532057 0.668831 1.521904 -60.932992 7.664198 -10.079771 -14.047920 -10.463195 -1.187077 -3.628448 2.753301 0.515090 -0.103910 0.071300 0.110340 19.700130 7.333409 4.000544 61.443589 1.686416 -7.967630 14.420737 12.226179 0.144044 2.459489 -1.143372 -0.124000 0.164330 -0.011840 -0.171350 
0.799850 16.849840 -9.466310 -2.151904 -22.496694 7.482200 -14.893872 12.734316 3.894322 8.298178 -3.187302 -30.552341 -4.667660 3.296005 4.514551 -0.486219 2.327987 3.719365 0.245090 0.077610 0.145610 18.400748 -11.054091 2.542230 -11.026552 0.776429 -7.113635 8.811188 -5.777346 11.569542 -0.350435 -3.756915 3.213409 -0.024910 0.037870 0.019900 -3.973686 -1.250010 -7.713089 11.894090 1.584491 10.852868 -3.351733 3.120397 -3.080844 1.653044 -7.879295 -8.285380 -16.204753 9.952657 34.730405 -0.189320 6.929310 -11.905540 -23.601487 0.590155 1.528033 -60.405692 7.635857 -9.990976 -14.537774 -10.483517 -1.171115 -3.629856 2.752474 0.514590 -0.098570 0.066510 0.115290 19.831530 7.378431 3.985575 60.928045 1.821276 -7.870401 15.192383 12.498653 0.200210 2.449550 -1.151011 -0.131200 0.175300 -0.012780 -0.171060 
0.804120 16.845510 -9.471110 -2.098296 -22.353598 7.318824 -14.878071 12.725401 3.886382 8.213035 -3.188508 -30.401788 -4.619557 3.263556 4.379697 -0.495733 2.326350 3.723245 0.246700 0.077380 0.151130 18.415576 -11.092100 2.524470 -11.000704 0.781617 -7.217077 8.571671 -5.793265 11.986665 -0.343386 -3.767042 3.204087 -0.018420 0.042170 0.022270 -4.019082 -1.176755 -7.689325 12.172841 1.497002 10.817427 -3.691409 3.054724 -2.812268 1.698217 -7.757649 -8.202753 -15.833500 9.730751 34.520903 -0.404580 6.852760 -11.750010 -23.785257 0.485357 1.539826 -59.600914 7.726217 -9.982167 -15.091276 -10.744793 -1.142967 -3.633819 2.763888 0.506280 -0.089880 0.059060 0.112130 19.860698 7.336629 3.936199 60.335950 2.032006 -7.747952 16.650370 12.944647 0.308705 2.441512 -1.172188 -0.133810 0.174770 -0.011080 -0.173630 
0.812420 16.846550 -9.475190 -2.203550 -22.128493 7.115806 -14.851753 12.729916 3.881922 8.207259 -3.164316 -30.323760 -4.592652 3.267800 4.460698 -0.508300 2.330137 3.720350 0.256310 0.084580 0.166370 18.437998 -11.127857 2.517359 -10.847906 0.771806 -7.190235 8.397394 -5.828907 12.414615 -0.348030 -3.777636 3.192492 -0.008890 0.033570 0.022080 -4.090683 -1.126397 -7.679770 12.875165 1.203560 10.980088 -4.291956 2.862440 -2.730182 1.839821 -7.759644 -8.140401 -15.798021 9.650083 34.702648 -0.758930 6.841760 -11.930010 -24.147069 0.457575 1.453582 -58.821041 7.753373 -9.821244 -15.251612 -10.647020 -1.135270 -3.628657 2.765574 0.510170 -0.092830 0.062680 0.108570 19.823417 7.276443 3.896717 59.622241 2.361337 -7.534222 18.522420 13.463823 0.491365 2.435462 -1.191053 -0.136300 0.176420 -0.013980 -0.180410 
0.817120 16.841760 -9.481690 -2.125300 -22.045403 6.904604 -14.842294 12.727276 3.883563 8.226263 -3.158757 -30.191030 -4.748335 3.279841 4.456663 -0.523976 2.344938 3.714389 0.282840 0.109070 0.194160 18.445059 -11.160054 2.496113 -10.858632 0.784221 -7.272085 8.142534 -5.849081 12.884225 -0.356553 -3.784827 3.181745 0.010420 0.019890 0.026650 -4.113047 -1.077524 -7.666885 13.019641 1.033975 11.123752 -4.745050 2.729258 -2.499263 2.014863 -7.609095 -7.995784 -15.383427 9.478471 34.663971 -1.234740 6.937910 -12.513830 -24.220743 0.471142 1.290437 -58.130405 7.419311 -9.436938 -15.372394 -9.948632 -1.157145 -3.624620 2.768568 0.519750 -0.096130 0.073190 0.112280 19.485627 7.091089 3.793324 58.876125 2.874591 -7.248401 21.132600 14.072833 0.755173 2.424059 -1.226609 -0.136650 0.176770 -0.028660 -0.189720 
0.825040 16.838470 -9.488330 -2.308318 -22.023588 6.907641 -14.818819 12.699765 3.884720 8.421713 -3.113092 -30.264580 -4.862696 3.317384 4.576325 -0.532371 2.365345 3.707488 0.297860 0.130660 0.205250 18.468904 -11.187510 2.493577 -10.752428 0.841651 -7.491621 8.176634 -5.902793 13.259523 -0.359444 -3.798109 3.179454 0.026780 0.019470 0.027160 -4.187288 -0.978625 -7.656943 13.673112 0.756776 11.235446 -5.543386 2.551819 -2.310684 2.279755 -7.472429 -7.941859 -14.876808 9.443096 34.381167 -1.649180 7.165880 -12.878320 -24.187108 0.361101 1.249642 -57.336071 7.310480 -9.166257 -15.650213 -9.482029 -1.167524 -3.626837 2.767938 0.517970 -0.089030 0.076100 0.118520 18.826049 7.038348 3.747522 58.008535 3.558166 -6.786187 24.858692 14.650772 1.155713 2.409723 -1.273643 -0.137840 0.183560 -0.038140 -0.192170 
0.828470 16.839500 -9.500950 -2.428243 -22.297668 6.735865 -14.802167 12.708326 3.889144 8.717136 -3.007524 -30.154037 -5.068121 3.389910 4.775884 -0.537082 2.400307 3.688127 0.321230 0.160790 0.227730 18.475829 -11.229793 2.488045 -10.633323 0.909473 -7.743333 7.963011 -5.924365 13.838164 -0.368464 -3.789396 3.176586 0.043930 0.004730 0.031410 -4.214037 -0.908907 -7.670178 13.982026 0.557351 11.656216 -6.238947 2.487097 -2.056601 2.623952 -7.225025 -8.070321 -14.243732 9.436012 34.541839 -2.027520 7.462760 -13.600540 -24.003490 -0.086473 1.382105 -56.308303 7.262302 -8.938211 -16.516904 -9.123252 -1.182064 -3.614318 2.775354 0.526570 -0.093130 0.093450 0.122130 17.926101 7.356113 3.829725 56.512692 4.440435 -6.204597 30.276635 15.627630 1.854291 2.393657 -1.340277 -0.133150 0.186640 -0.051560 -0.197630 
